<mxfile host="app.diagrams.net" agent="Mozilla/5.0 (Windows NT 10.0; Win64; x64) AppleWebKit/537.36 (KHTML, like Gecko) Chrome/134.0.0.0 Safari/537.36" version="26.1.1">
  <diagram id="C5RBs43oDa-KdzZeNtuy" name="Page-1">
    <mxGraphModel dx="1434" dy="784" grid="1" gridSize="10" guides="1" tooltips="1" connect="1" arrows="1" fold="1" page="1" pageScale="1" pageWidth="827" pageHeight="1169" math="0" shadow="0">
      <root>
        <mxCell id="WIyWlLk6GJQsqaUBKTNV-0" />
        <mxCell id="WIyWlLk6GJQsqaUBKTNV-1" parent="WIyWlLk6GJQsqaUBKTNV-0" />
        <mxCell id="VCkYvAJSFD96SRJC9dSR-2" value="Player" style="rounded=0;whiteSpace=wrap;html=1;" vertex="1" parent="WIyWlLk6GJQsqaUBKTNV-1">
          <mxGeometry x="150" y="300" width="80" height="30" as="geometry" />
        </mxCell>
        <mxCell id="VCkYvAJSFD96SRJC9dSR-3" value="Team" style="rounded=0;whiteSpace=wrap;html=1;" vertex="1" parent="WIyWlLk6GJQsqaUBKTNV-1">
          <mxGeometry x="460" y="275" width="80" height="30" as="geometry" />
        </mxCell>
        <mxCell id="VCkYvAJSFD96SRJC9dSR-4" value="Game" style="rounded=0;whiteSpace=wrap;html=1;" vertex="1" parent="WIyWlLk6GJQsqaUBKTNV-1">
          <mxGeometry x="414" y="450" width="80" height="30" as="geometry" />
        </mxCell>
        <mxCell id="VCkYvAJSFD96SRJC9dSR-5" value="Stadium" style="rounded=0;whiteSpace=wrap;html=1;" vertex="1" parent="WIyWlLk6GJQsqaUBKTNV-1">
          <mxGeometry x="650" y="400" width="80" height="30" as="geometry" />
        </mxCell>
        <mxCell id="VCkYvAJSFD96SRJC9dSR-6" value="Referee" style="rounded=0;whiteSpace=wrap;html=1;" vertex="1" parent="WIyWlLk6GJQsqaUBKTNV-1">
          <mxGeometry x="535" y="610" width="80" height="30" as="geometry" />
        </mxCell>
        <mxCell id="VCkYvAJSFD96SRJC9dSR-7" value="Manager" style="rounded=0;whiteSpace=wrap;html=1;" vertex="1" parent="WIyWlLk6GJQsqaUBKTNV-1">
          <mxGeometry x="450" y="120" width="80" height="30" as="geometry" />
        </mxCell>
        <mxCell id="VCkYvAJSFD96SRJC9dSR-8" value="&lt;u&gt;ID&lt;/u&gt;" style="ellipse;whiteSpace=wrap;html=1;" vertex="1" parent="WIyWlLk6GJQsqaUBKTNV-1">
          <mxGeometry x="165" y="220" width="50" height="30" as="geometry" />
        </mxCell>
        <mxCell id="VCkYvAJSFD96SRJC9dSR-9" value="ShortName" style="ellipse;whiteSpace=wrap;html=1;" vertex="1" parent="WIyWlLk6GJQsqaUBKTNV-1">
          <mxGeometry x="240" y="240" width="70" height="40" as="geometry" />
        </mxCell>
        <mxCell id="VCkYvAJSFD96SRJC9dSR-10" value="FullName" style="ellipse;whiteSpace=wrap;html=1;" vertex="1" parent="WIyWlLk6GJQsqaUBKTNV-1">
          <mxGeometry x="270" y="295" width="80" height="40" as="geometry" />
        </mxCell>
        <mxCell id="VCkYvAJSFD96SRJC9dSR-11" value="Height" style="ellipse;whiteSpace=wrap;html=1;" vertex="1" parent="WIyWlLk6GJQsqaUBKTNV-1">
          <mxGeometry x="245" y="350" width="60" height="40" as="geometry" />
        </mxCell>
        <mxCell id="VCkYvAJSFD96SRJC9dSR-12" value="Position" style="ellipse;whiteSpace=wrap;html=1;" vertex="1" parent="WIyWlLk6GJQsqaUBKTNV-1">
          <mxGeometry x="40" y="290" width="65" height="40" as="geometry" />
        </mxCell>
        <mxCell id="VCkYvAJSFD96SRJC9dSR-13" value="Nationality" style="ellipse;whiteSpace=wrap;html=1;" vertex="1" parent="WIyWlLk6GJQsqaUBKTNV-1">
          <mxGeometry x="150" y="370" width="80" height="40" as="geometry" />
        </mxCell>
        <mxCell id="VCkYvAJSFD96SRJC9dSR-14" value="Age" style="ellipse;whiteSpace=wrap;html=1;" vertex="1" parent="WIyWlLk6GJQsqaUBKTNV-1">
          <mxGeometry x="90" y="245" width="50" height="30" as="geometry" />
        </mxCell>
        <mxCell id="VCkYvAJSFD96SRJC9dSR-15" value="Weight" style="ellipse;whiteSpace=wrap;html=1;" vertex="1" parent="WIyWlLk6GJQsqaUBKTNV-1">
          <mxGeometry x="70" y="350" width="65" height="40" as="geometry" />
        </mxCell>
        <mxCell id="VCkYvAJSFD96SRJC9dSR-16" value="" style="endArrow=none;html=1;rounded=0;entryX=1;entryY=1;entryDx=0;entryDy=0;" edge="1" parent="WIyWlLk6GJQsqaUBKTNV-1" target="VCkYvAJSFD96SRJC9dSR-14">
          <mxGeometry width="50" height="50" relative="1" as="geometry">
            <mxPoint x="170" y="300" as="sourcePoint" />
            <mxPoint x="410" y="400" as="targetPoint" />
          </mxGeometry>
        </mxCell>
        <mxCell id="VCkYvAJSFD96SRJC9dSR-18" value="" style="endArrow=none;html=1;rounded=0;entryX=0.5;entryY=1;entryDx=0;entryDy=0;exitX=0.5;exitY=0;exitDx=0;exitDy=0;" edge="1" parent="WIyWlLk6GJQsqaUBKTNV-1" source="VCkYvAJSFD96SRJC9dSR-2" target="VCkYvAJSFD96SRJC9dSR-8">
          <mxGeometry width="50" height="50" relative="1" as="geometry">
            <mxPoint x="360" y="450" as="sourcePoint" />
            <mxPoint x="410" y="400" as="targetPoint" />
          </mxGeometry>
        </mxCell>
        <mxCell id="VCkYvAJSFD96SRJC9dSR-20" value="" style="endArrow=none;html=1;rounded=0;entryX=1;entryY=0.5;entryDx=0;entryDy=0;" edge="1" parent="WIyWlLk6GJQsqaUBKTNV-1" target="VCkYvAJSFD96SRJC9dSR-12">
          <mxGeometry width="50" height="50" relative="1" as="geometry">
            <mxPoint x="150" y="310" as="sourcePoint" />
            <mxPoint x="143" y="281" as="targetPoint" />
          </mxGeometry>
        </mxCell>
        <mxCell id="VCkYvAJSFD96SRJC9dSR-21" value="" style="endArrow=none;html=1;rounded=0;entryX=1;entryY=0;entryDx=0;entryDy=0;exitX=0;exitY=1;exitDx=0;exitDy=0;" edge="1" parent="WIyWlLk6GJQsqaUBKTNV-1" source="VCkYvAJSFD96SRJC9dSR-2" target="VCkYvAJSFD96SRJC9dSR-15">
          <mxGeometry width="50" height="50" relative="1" as="geometry">
            <mxPoint x="190" y="320" as="sourcePoint" />
            <mxPoint x="153" y="291" as="targetPoint" />
          </mxGeometry>
        </mxCell>
        <mxCell id="VCkYvAJSFD96SRJC9dSR-22" value="" style="endArrow=none;html=1;rounded=0;entryX=0.5;entryY=0;entryDx=0;entryDy=0;exitX=0.5;exitY=1;exitDx=0;exitDy=0;" edge="1" parent="WIyWlLk6GJQsqaUBKTNV-1" source="VCkYvAJSFD96SRJC9dSR-2" target="VCkYvAJSFD96SRJC9dSR-13">
          <mxGeometry width="50" height="50" relative="1" as="geometry">
            <mxPoint x="200" y="330" as="sourcePoint" />
            <mxPoint x="163" y="301" as="targetPoint" />
          </mxGeometry>
        </mxCell>
        <mxCell id="VCkYvAJSFD96SRJC9dSR-23" value="" style="endArrow=none;html=1;rounded=0;entryX=0.905;entryY=0.999;entryDx=0;entryDy=0;entryPerimeter=0;exitX=0;exitY=0;exitDx=0;exitDy=0;" edge="1" parent="WIyWlLk6GJQsqaUBKTNV-1" source="VCkYvAJSFD96SRJC9dSR-11" target="VCkYvAJSFD96SRJC9dSR-2">
          <mxGeometry width="50" height="50" relative="1" as="geometry">
            <mxPoint x="210" y="340" as="sourcePoint" />
            <mxPoint x="173" y="311" as="targetPoint" />
          </mxGeometry>
        </mxCell>
        <mxCell id="VCkYvAJSFD96SRJC9dSR-24" value="" style="endArrow=none;html=1;rounded=0;entryX=1;entryY=0.75;entryDx=0;entryDy=0;exitX=0;exitY=0.5;exitDx=0;exitDy=0;" edge="1" parent="WIyWlLk6GJQsqaUBKTNV-1" source="VCkYvAJSFD96SRJC9dSR-10" target="VCkYvAJSFD96SRJC9dSR-2">
          <mxGeometry width="50" height="50" relative="1" as="geometry">
            <mxPoint x="220" y="350" as="sourcePoint" />
            <mxPoint x="183" y="321" as="targetPoint" />
          </mxGeometry>
        </mxCell>
        <mxCell id="VCkYvAJSFD96SRJC9dSR-25" value="" style="endArrow=none;html=1;rounded=0;exitX=0;exitY=1;exitDx=0;exitDy=0;entryX=0.919;entryY=-0.006;entryDx=0;entryDy=0;entryPerimeter=0;" edge="1" parent="WIyWlLk6GJQsqaUBKTNV-1" source="VCkYvAJSFD96SRJC9dSR-9" target="VCkYvAJSFD96SRJC9dSR-2">
          <mxGeometry width="50" height="50" relative="1" as="geometry">
            <mxPoint x="230" y="360" as="sourcePoint" />
            <mxPoint x="210" y="298" as="targetPoint" />
          </mxGeometry>
        </mxCell>
        <mxCell id="VCkYvAJSFD96SRJC9dSR-26" value="&lt;u&gt;ID&lt;/u&gt;" style="ellipse;whiteSpace=wrap;html=1;" vertex="1" parent="WIyWlLk6GJQsqaUBKTNV-1">
          <mxGeometry x="550" y="350" width="50" height="30" as="geometry" />
        </mxCell>
        <mxCell id="VCkYvAJSFD96SRJC9dSR-27" value="Name" style="ellipse;whiteSpace=wrap;html=1;" vertex="1" parent="WIyWlLk6GJQsqaUBKTNV-1">
          <mxGeometry x="560" y="230" width="51" height="30" as="geometry" />
        </mxCell>
        <mxCell id="VCkYvAJSFD96SRJC9dSR-28" value="Points" style="ellipse;whiteSpace=wrap;html=1;" vertex="1" parent="WIyWlLk6GJQsqaUBKTNV-1">
          <mxGeometry x="414" y="220" width="51" height="30" as="geometry" />
        </mxCell>
        <mxCell id="VCkYvAJSFD96SRJC9dSR-30" value="" style="endArrow=none;html=1;rounded=0;entryX=1;entryY=1;entryDx=0;entryDy=0;exitX=0.25;exitY=0;exitDx=0;exitDy=0;" edge="1" parent="WIyWlLk6GJQsqaUBKTNV-1" source="VCkYvAJSFD96SRJC9dSR-3" target="VCkYvAJSFD96SRJC9dSR-28">
          <mxGeometry width="50" height="50" relative="1" as="geometry">
            <mxPoint x="410" y="450" as="sourcePoint" />
            <mxPoint x="460" y="400" as="targetPoint" />
          </mxGeometry>
        </mxCell>
        <mxCell id="VCkYvAJSFD96SRJC9dSR-31" value="" style="endArrow=none;html=1;rounded=0;entryX=0;entryY=1;entryDx=0;entryDy=0;exitX=1;exitY=0;exitDx=0;exitDy=0;" edge="1" parent="WIyWlLk6GJQsqaUBKTNV-1" source="VCkYvAJSFD96SRJC9dSR-3" target="VCkYvAJSFD96SRJC9dSR-27">
          <mxGeometry width="50" height="50" relative="1" as="geometry">
            <mxPoint x="490" y="285" as="sourcePoint" />
            <mxPoint x="468" y="255" as="targetPoint" />
          </mxGeometry>
        </mxCell>
        <mxCell id="VCkYvAJSFD96SRJC9dSR-32" value="" style="endArrow=none;html=1;rounded=0;entryX=1;entryY=1;entryDx=0;entryDy=0;exitX=0;exitY=0;exitDx=0;exitDy=0;" edge="1" parent="WIyWlLk6GJQsqaUBKTNV-1" source="VCkYvAJSFD96SRJC9dSR-26" target="VCkYvAJSFD96SRJC9dSR-3">
          <mxGeometry width="50" height="50" relative="1" as="geometry">
            <mxPoint x="500" y="295" as="sourcePoint" />
            <mxPoint x="478" y="265" as="targetPoint" />
          </mxGeometry>
        </mxCell>
        <mxCell id="VCkYvAJSFD96SRJC9dSR-33" value="&lt;u&gt;ID&lt;/u&gt;" style="ellipse;whiteSpace=wrap;html=1;" vertex="1" parent="WIyWlLk6GJQsqaUBKTNV-1">
          <mxGeometry x="330" y="500" width="50" height="30" as="geometry" />
        </mxCell>
        <mxCell id="VCkYvAJSFD96SRJC9dSR-34" value="Result" style="ellipse;whiteSpace=wrap;html=1;" vertex="1" parent="WIyWlLk6GJQsqaUBKTNV-1">
          <mxGeometry x="388" y="530" width="51" height="30" as="geometry" />
        </mxCell>
        <mxCell id="VCkYvAJSFD96SRJC9dSR-35" value="Date" style="ellipse;whiteSpace=wrap;html=1;" vertex="1" parent="WIyWlLk6GJQsqaUBKTNV-1">
          <mxGeometry x="320" y="450" width="51" height="30" as="geometry" />
        </mxCell>
        <mxCell id="VCkYvAJSFD96SRJC9dSR-36" value="Time" style="ellipse;whiteSpace=wrap;html=1;" vertex="1" parent="WIyWlLk6GJQsqaUBKTNV-1">
          <mxGeometry x="350" y="400" width="51" height="30" as="geometry" />
        </mxCell>
        <mxCell id="VCkYvAJSFD96SRJC9dSR-38" value="&lt;u&gt;ID&lt;/u&gt;" style="ellipse;whiteSpace=wrap;html=1;" vertex="1" parent="WIyWlLk6GJQsqaUBKTNV-1">
          <mxGeometry x="690" y="340" width="50" height="30" as="geometry" />
        </mxCell>
        <mxCell id="VCkYvAJSFD96SRJC9dSR-41" value="" style="endArrow=none;html=1;rounded=0;entryX=0.307;entryY=1.022;entryDx=0;entryDy=0;exitX=0.5;exitY=0;exitDx=0;exitDy=0;entryPerimeter=0;" edge="1" parent="WIyWlLk6GJQsqaUBKTNV-1" source="VCkYvAJSFD96SRJC9dSR-5" target="VCkYvAJSFD96SRJC9dSR-38">
          <mxGeometry width="50" height="50" relative="1" as="geometry">
            <mxPoint x="567" y="365" as="sourcePoint" />
            <mxPoint x="550" y="315" as="targetPoint" />
          </mxGeometry>
        </mxCell>
        <mxCell id="VCkYvAJSFD96SRJC9dSR-42" value="Name" style="ellipse;whiteSpace=wrap;html=1;" vertex="1" parent="WIyWlLk6GJQsqaUBKTNV-1">
          <mxGeometry x="760" y="360" width="51" height="30" as="geometry" />
        </mxCell>
        <mxCell id="VCkYvAJSFD96SRJC9dSR-43" value="" style="endArrow=none;html=1;rounded=0;exitX=1;exitY=0;exitDx=0;exitDy=0;" edge="1" parent="WIyWlLk6GJQsqaUBKTNV-1" source="VCkYvAJSFD96SRJC9dSR-5">
          <mxGeometry width="50" height="50" relative="1" as="geometry">
            <mxPoint x="730" y="415" as="sourcePoint" />
            <mxPoint x="760" y="375" as="targetPoint" />
          </mxGeometry>
        </mxCell>
        <mxCell id="VCkYvAJSFD96SRJC9dSR-46" value="Capacity" style="ellipse;whiteSpace=wrap;html=1;" vertex="1" parent="WIyWlLk6GJQsqaUBKTNV-1">
          <mxGeometry x="755.5" y="400" width="60" height="30" as="geometry" />
        </mxCell>
        <mxCell id="VCkYvAJSFD96SRJC9dSR-47" value="" style="endArrow=none;html=1;rounded=0;entryX=0;entryY=0.5;entryDx=0;entryDy=0;exitX=1;exitY=0.5;exitDx=0;exitDy=0;" edge="1" parent="WIyWlLk6GJQsqaUBKTNV-1" target="VCkYvAJSFD96SRJC9dSR-46" source="VCkYvAJSFD96SRJC9dSR-5">
          <mxGeometry width="50" height="50" relative="1" as="geometry">
            <mxPoint x="722" y="433" as="sourcePoint" />
            <mxPoint x="695" y="431" as="targetPoint" />
          </mxGeometry>
        </mxCell>
        <mxCell id="VCkYvAJSFD96SRJC9dSR-49" value="YearCreation" style="ellipse;whiteSpace=wrap;html=1;" vertex="1" parent="WIyWlLk6GJQsqaUBKTNV-1">
          <mxGeometry x="730" y="445" width="80" height="40" as="geometry" />
        </mxCell>
        <mxCell id="VCkYvAJSFD96SRJC9dSR-50" value="Location" style="ellipse;whiteSpace=wrap;html=1;" vertex="1" parent="WIyWlLk6GJQsqaUBKTNV-1">
          <mxGeometry x="660" y="470" width="60" height="30" as="geometry" />
        </mxCell>
        <mxCell id="VCkYvAJSFD96SRJC9dSR-51" value="" style="endArrow=none;html=1;rounded=0;entryX=0;entryY=0;entryDx=0;entryDy=0;exitX=1;exitY=1;exitDx=0;exitDy=0;" edge="1" parent="WIyWlLk6GJQsqaUBKTNV-1" source="VCkYvAJSFD96SRJC9dSR-5" target="VCkYvAJSFD96SRJC9dSR-49">
          <mxGeometry width="50" height="50" relative="1" as="geometry">
            <mxPoint x="740" y="425" as="sourcePoint" />
            <mxPoint x="766" y="425" as="targetPoint" />
          </mxGeometry>
        </mxCell>
        <mxCell id="VCkYvAJSFD96SRJC9dSR-52" value="" style="endArrow=none;html=1;rounded=0;entryX=0.5;entryY=0;entryDx=0;entryDy=0;exitX=0.5;exitY=1;exitDx=0;exitDy=0;" edge="1" parent="WIyWlLk6GJQsqaUBKTNV-1" source="VCkYvAJSFD96SRJC9dSR-5" target="VCkYvAJSFD96SRJC9dSR-50">
          <mxGeometry width="50" height="50" relative="1" as="geometry">
            <mxPoint x="750" y="435" as="sourcePoint" />
            <mxPoint x="776" y="435" as="targetPoint" />
          </mxGeometry>
        </mxCell>
        <mxCell id="VCkYvAJSFD96SRJC9dSR-53" value="" style="endArrow=none;html=1;rounded=0;entryX=1;entryY=1;entryDx=0;entryDy=0;exitX=0;exitY=0;exitDx=0;exitDy=0;" edge="1" parent="WIyWlLk6GJQsqaUBKTNV-1" source="VCkYvAJSFD96SRJC9dSR-4" target="VCkYvAJSFD96SRJC9dSR-36">
          <mxGeometry width="50" height="50" relative="1" as="geometry">
            <mxPoint x="740" y="440" as="sourcePoint" />
            <mxPoint x="752" y="461" as="targetPoint" />
          </mxGeometry>
        </mxCell>
        <mxCell id="VCkYvAJSFD96SRJC9dSR-54" value="" style="endArrow=none;html=1;rounded=0;entryX=0;entryY=0.5;entryDx=0;entryDy=0;exitX=1;exitY=0.5;exitDx=0;exitDy=0;" edge="1" parent="WIyWlLk6GJQsqaUBKTNV-1" source="VCkYvAJSFD96SRJC9dSR-35" target="VCkYvAJSFD96SRJC9dSR-4">
          <mxGeometry width="50" height="50" relative="1" as="geometry">
            <mxPoint x="750" y="450" as="sourcePoint" />
            <mxPoint x="762" y="471" as="targetPoint" />
          </mxGeometry>
        </mxCell>
        <mxCell id="VCkYvAJSFD96SRJC9dSR-55" value="" style="endArrow=none;html=1;rounded=0;entryX=0;entryY=1;entryDx=0;entryDy=0;exitX=1;exitY=0.5;exitDx=0;exitDy=0;" edge="1" parent="WIyWlLk6GJQsqaUBKTNV-1" source="VCkYvAJSFD96SRJC9dSR-33" target="VCkYvAJSFD96SRJC9dSR-4">
          <mxGeometry width="50" height="50" relative="1" as="geometry">
            <mxPoint x="760" y="460" as="sourcePoint" />
            <mxPoint x="772" y="481" as="targetPoint" />
          </mxGeometry>
        </mxCell>
        <mxCell id="VCkYvAJSFD96SRJC9dSR-56" value="" style="endArrow=none;html=1;rounded=0;entryX=0.25;entryY=1;entryDx=0;entryDy=0;exitX=0.5;exitY=0;exitDx=0;exitDy=0;" edge="1" parent="WIyWlLk6GJQsqaUBKTNV-1" source="VCkYvAJSFD96SRJC9dSR-34" target="VCkYvAJSFD96SRJC9dSR-4">
          <mxGeometry width="50" height="50" relative="1" as="geometry">
            <mxPoint x="770" y="470" as="sourcePoint" />
            <mxPoint x="782" y="491" as="targetPoint" />
          </mxGeometry>
        </mxCell>
        <mxCell id="VCkYvAJSFD96SRJC9dSR-57" value="&lt;u&gt;ID&lt;/u&gt;" style="ellipse;whiteSpace=wrap;html=1;" vertex="1" parent="WIyWlLk6GJQsqaUBKTNV-1">
          <mxGeometry x="465" y="640" width="50" height="30" as="geometry" />
        </mxCell>
        <mxCell id="VCkYvAJSFD96SRJC9dSR-58" value="Name" style="ellipse;whiteSpace=wrap;html=1;" vertex="1" parent="WIyWlLk6GJQsqaUBKTNV-1">
          <mxGeometry x="540" y="670" width="51" height="30" as="geometry" />
        </mxCell>
        <mxCell id="VCkYvAJSFD96SRJC9dSR-59" value="Age" style="ellipse;whiteSpace=wrap;html=1;" vertex="1" parent="WIyWlLk6GJQsqaUBKTNV-1">
          <mxGeometry x="630" y="650" width="50" height="30" as="geometry" />
        </mxCell>
        <mxCell id="VCkYvAJSFD96SRJC9dSR-60" value="" style="endArrow=none;html=1;rounded=0;entryX=0;entryY=0.5;entryDx=0;entryDy=0;exitX=1;exitY=0;exitDx=0;exitDy=0;" edge="1" parent="WIyWlLk6GJQsqaUBKTNV-1" source="VCkYvAJSFD96SRJC9dSR-57" target="VCkYvAJSFD96SRJC9dSR-6">
          <mxGeometry width="50" height="50" relative="1" as="geometry">
            <mxPoint x="424" y="540" as="sourcePoint" />
            <mxPoint x="444" y="490" as="targetPoint" />
          </mxGeometry>
        </mxCell>
        <mxCell id="VCkYvAJSFD96SRJC9dSR-61" value="" style="endArrow=none;html=1;rounded=0;entryX=0.5;entryY=1;entryDx=0;entryDy=0;exitX=0.5;exitY=0;exitDx=0;exitDy=0;" edge="1" parent="WIyWlLk6GJQsqaUBKTNV-1" source="VCkYvAJSFD96SRJC9dSR-58" target="VCkYvAJSFD96SRJC9dSR-6">
          <mxGeometry width="50" height="50" relative="1" as="geometry">
            <mxPoint x="434" y="550" as="sourcePoint" />
            <mxPoint x="454" y="500" as="targetPoint" />
          </mxGeometry>
        </mxCell>
        <mxCell id="VCkYvAJSFD96SRJC9dSR-62" value="" style="endArrow=none;html=1;rounded=0;entryX=1;entryY=0.75;entryDx=0;entryDy=0;" edge="1" parent="WIyWlLk6GJQsqaUBKTNV-1" source="VCkYvAJSFD96SRJC9dSR-59" target="VCkYvAJSFD96SRJC9dSR-6">
          <mxGeometry width="50" height="50" relative="1" as="geometry">
            <mxPoint x="444" y="560" as="sourcePoint" />
            <mxPoint x="464" y="510" as="targetPoint" />
          </mxGeometry>
        </mxCell>
        <mxCell id="VCkYvAJSFD96SRJC9dSR-63" value="&lt;u&gt;ID&lt;/u&gt;" style="ellipse;whiteSpace=wrap;html=1;" vertex="1" parent="WIyWlLk6GJQsqaUBKTNV-1">
          <mxGeometry x="475" y="50" width="50" height="30" as="geometry" />
        </mxCell>
        <mxCell id="VCkYvAJSFD96SRJC9dSR-64" value="Name" style="ellipse;whiteSpace=wrap;html=1;" vertex="1" parent="WIyWlLk6GJQsqaUBKTNV-1">
          <mxGeometry x="540" y="70" width="51" height="30" as="geometry" />
        </mxCell>
        <mxCell id="VCkYvAJSFD96SRJC9dSR-65" value="Age" style="ellipse;whiteSpace=wrap;html=1;" vertex="1" parent="WIyWlLk6GJQsqaUBKTNV-1">
          <mxGeometry x="400" y="70" width="50" height="30" as="geometry" />
        </mxCell>
        <mxCell id="VCkYvAJSFD96SRJC9dSR-66" value="" style="endArrow=none;html=1;rounded=0;entryX=0.25;entryY=0;entryDx=0;entryDy=0;exitX=1;exitY=1;exitDx=0;exitDy=0;" edge="1" parent="WIyWlLk6GJQsqaUBKTNV-1" source="VCkYvAJSFD96SRJC9dSR-65" target="VCkYvAJSFD96SRJC9dSR-7">
          <mxGeometry width="50" height="50" relative="1" as="geometry">
            <mxPoint x="550" y="285" as="sourcePoint" />
            <mxPoint x="578" y="266" as="targetPoint" />
          </mxGeometry>
        </mxCell>
        <mxCell id="VCkYvAJSFD96SRJC9dSR-67" value="" style="endArrow=none;html=1;rounded=0;entryX=0.5;entryY=1;entryDx=0;entryDy=0;exitX=0.5;exitY=0;exitDx=0;exitDy=0;" edge="1" parent="WIyWlLk6GJQsqaUBKTNV-1" source="VCkYvAJSFD96SRJC9dSR-7" target="VCkYvAJSFD96SRJC9dSR-63">
          <mxGeometry width="50" height="50" relative="1" as="geometry">
            <mxPoint x="560" y="295" as="sourcePoint" />
            <mxPoint x="588" y="276" as="targetPoint" />
          </mxGeometry>
        </mxCell>
        <mxCell id="VCkYvAJSFD96SRJC9dSR-68" value="" style="endArrow=none;html=1;rounded=0;entryX=0;entryY=1;entryDx=0;entryDy=0;exitX=1;exitY=0;exitDx=0;exitDy=0;" edge="1" parent="WIyWlLk6GJQsqaUBKTNV-1" source="VCkYvAJSFD96SRJC9dSR-7" target="VCkYvAJSFD96SRJC9dSR-64">
          <mxGeometry width="50" height="50" relative="1" as="geometry">
            <mxPoint x="570" y="305" as="sourcePoint" />
            <mxPoint x="598" y="286" as="targetPoint" />
          </mxGeometry>
        </mxCell>
      </root>
    </mxGraphModel>
  </diagram>
</mxfile>
